<?xml version="1.0" encoding="UTF-8"?>
<svg width="357.11" height="87.56" version="1.1" viewBox="0 0 357.11 87.56" xmlns="http://www.w3.org/2000/svg">
 <g transform="translate(-11.56,-6.22)" fill="#62bb47" data-name="Bentley">
  <path d="m19.39 45.25h-7.83v-11.48h7.83v-26.2h35c10 0 18.89 5.85 18.89 17.54 0 6.05-3.13 10.85-8 13 6.79 2.2 11.69 7.62 11.69 16 0 11.69-8.66 19-20.14 19h-37.44zm12.1-11.48h21.51c5.33 0 8.14-3.45 8.14-7.41s-2.82-7.31-8.14-7.31h-21.51zm0 27.87h23.9c5.43 0 9.4-3.55 9.4-8.15s-4-8.24-9.4-8.24h-23.9z"/>
  <path d="m134.91 62.16c-6 7.62-14.4 12.21-23.48 12.31-17.64 0-27.87-13.25-27.87-26.61s10.23-26.61 27.87-26.61c10.54 0 26.19 8.66 26.19 28.38v2h-41.95c0.63 7.72 7.83 13.25 15.45 13.25 5.84 0 10.85-2.82 14.61-7.83zm-10-19.52c-2.29-7.72-8-11.79-14.92-11.79s-12.53 4.28-14.3 11.79z"/>
  <path d="m148.47 22.6h10.86v6.4h0.2c3-4.7 8.56-7.72 15.45-7.72 10.65 0 19.62 8.87 19.62 21.39v30.45h-10.85v-28.12c0-9.18-4.8-12.94-12-12.94-7 0-12.42 4.49-12.42 12.73v28.33h-10.86z"/>
  <path d="m209 32.83h-6.16v-10.23h6.16v-13.46l10.85-2.92v16.38h7.73v10.23h-7.73v40.29h-10.85z"/>
  <path d="m246.46 7.57v45.2c0 5.84 1.25 7.93 4.49 9.81l5.85 3.33-4.8 8.56c-11.16-5.32-16.38-9.18-16.38-19.72v-47.18z"/>
  <path d="m310.75 62.16c-6.05 7.62-14.4 12.21-23.48 12.31-17.64 0-27.86-13.25-27.86-26.61s10.22-26.61 27.86-26.61c10.54 0 26.2 8.66 26.2 28.38v2h-42c0.63 7.72 7.83 13.25 15.45 13.25 5.85 0 10.85-2.82 14.61-7.83zm-10-19.52c-2.3-7.72-8-11.79-14.93-11.79s-12.52 4.28-14.3 11.79z"/>
  <path d="m322.54 22.6h10.85v29.64c0 8.46 5.22 12 11.91 12 8.45 0 12.52-5.21 12.52-13v-28.64h10.85v48.95c0 15.45-13.67 22.23-23.07 22.23-11.37 0-16.49-4.28-21.39-9.91l9.18-5.64c3.45 3.34 6.89 5.33 11.59 5.33 7.2 0 13.46-4.39 13.46-13.26v-2.71h-0.2c-4.24 4.8-8.24 6.88-15.24 6.88-11.27 0-20.45-8.45-20.45-22.65z"/>
 </g>
</svg>
